<svg width="355" height="50" viewBox="0 0 355 50" fill="none" xmlns="http://www.w3.org/2000/svg">
<path d="M22.5 38L20.7 30.55H10.6L8.84998 38H0.349976L10.8 3.34999H20.75L31.2 38H22.5ZM12 24.6H19.3L15.65 9.29999L12 24.6Z" fill="#141414"/>
<path d="M55.9922 38H49.1422L48.7922 34.65C46.8588 37.45 44.1755 38.85 40.7422 38.85C38.3088 38.85 36.4588 38.1167 35.1922 36.65C33.9588 35.1833 33.3422 33.1333 33.3422 30.5V11.45H41.2422V29.5C41.2422 30.8 41.4422 31.7167 41.8422 32.25C42.2755 32.75 42.9255 33 43.7922 33C45.4588 33 46.8922 31.9667 48.0922 29.9V11.45H55.9922V38Z" fill="#141414"/>
<path d="M86.6554 13C84.9221 13.7 82.3721 14.05 79.0054 14.05C80.7388 14.7833 82.0054 15.6833 82.8054 16.75C83.6054 17.8167 84.0054 19.2 84.0054 20.9C84.0054 22.6 83.5554 24.1333 82.6554 25.5C81.7554 26.8333 80.4554 27.8833 78.7554 28.65C77.0888 29.4167 75.1221 29.8 72.8554 29.8C71.7888 29.8 70.7721 29.7 69.8054 29.5C69.5388 29.6333 69.3221 29.85 69.1554 30.15C69.0221 30.4167 68.9554 30.7 68.9554 31C68.9554 31.5 69.1388 31.9 69.5054 32.2C69.9054 32.4667 70.6888 32.6 71.8554 32.6H75.8554C77.8888 32.6 79.6721 32.9333 81.2054 33.6C82.7388 34.2667 83.9221 35.1833 84.7554 36.35C85.5888 37.5167 86.0054 38.8333 86.0054 40.3C86.0054 43.0667 84.8054 45.2167 82.4054 46.75C80.0388 48.3167 76.6054 49.1 72.1054 49.1C68.8721 49.1 66.3221 48.75 64.4554 48.05C62.5888 47.3833 61.2721 46.4333 60.5054 45.2C59.7721 43.9667 59.4054 42.4167 59.4054 40.55H66.5054C66.5054 41.35 66.6554 41.9833 66.9554 42.45C67.2888 42.9167 67.8721 43.2667 68.7054 43.5C69.5388 43.7333 70.7388 43.85 72.3054 43.85C74.4721 43.85 75.9721 43.5833 76.8054 43.05C77.6388 42.55 78.0554 41.8167 78.0554 40.85C78.0554 40.05 77.7388 39.4167 77.1054 38.95C76.4721 38.4833 75.5221 38.25 74.2554 38.25H70.4054C67.6721 38.25 65.6221 37.7667 64.2554 36.8C62.9221 35.8 62.2554 34.5333 62.2554 33C62.2554 32.0333 62.5388 31.1 63.1054 30.2C63.6721 29.2667 64.4388 28.5 65.4054 27.9C63.7388 27 62.5221 25.95 61.7554 24.75C61.0221 23.5167 60.6554 22.0333 60.6554 20.3C60.6554 17.3333 61.7221 14.9833 63.8554 13.25C65.9888 11.4833 68.8054 10.6 72.3054 10.6C74.9721 10.6667 77.2221 10.4 79.0554 9.79999C80.9221 9.19999 82.8388 8.31666 84.8054 7.14999L86.6554 13ZM72.5054 15.8C71.2721 15.8 70.2888 16.2 69.5554 17C68.8554 17.7667 68.5054 18.8333 68.5054 20.2C68.5054 21.6333 68.8554 22.75 69.5554 23.55C70.2888 24.3167 71.2721 24.7 72.5054 24.7C73.8054 24.7 74.7888 24.3167 75.4554 23.55C76.1554 22.7833 76.5054 21.6333 76.5054 20.1C76.5054 17.2333 75.1721 15.8 72.5054 15.8Z" fill="#141414"/>
<path d="M111.656 38H104.806L104.456 34.65C102.523 37.45 99.8396 38.85 96.4062 38.85C93.9729 38.85 92.1229 38.1167 90.8562 36.65C89.6229 35.1833 89.0062 33.1333 89.0062 30.5V11.45H96.9062V29.5C96.9062 30.8 97.1062 31.7167 97.5062 32.25C97.9396 32.75 98.5896 33 99.4562 33C101.123 33 102.556 31.9667 103.756 29.9V11.45H111.656V38Z" fill="#141414"/>
<path d="M127.22 10.6C129.12 10.6 130.903 10.8833 132.57 11.45C134.236 12.0167 135.703 12.8167 136.97 13.85L134.07 18.3C131.903 16.9333 129.72 16.25 127.52 16.25C126.486 16.25 125.686 16.4333 125.12 16.8C124.586 17.1333 124.32 17.6167 124.32 18.25C124.32 18.75 124.436 19.1667 124.67 19.5C124.936 19.8 125.453 20.1167 126.22 20.45C126.986 20.7833 128.17 21.1833 129.77 21.65C132.536 22.45 134.586 23.5 135.92 24.8C137.286 26.0667 137.97 27.8333 137.97 30.1C137.97 31.9 137.453 33.4667 136.42 34.8C135.386 36.1 133.97 37.1 132.17 37.8C130.37 38.5 128.37 38.85 126.17 38.85C123.936 38.85 121.853 38.5 119.92 37.8C118.02 37.1 116.403 36.1333 115.07 34.9L118.92 30.6C121.153 32.3333 123.503 33.2 125.97 33.2C127.17 33.2 128.103 32.9833 128.77 32.55C129.47 32.1167 129.82 31.5 129.82 30.7C129.82 30.0667 129.686 29.5667 129.42 29.2C129.153 28.8333 128.636 28.5 127.87 28.2C127.103 27.8667 125.886 27.4667 124.22 27C121.586 26.2333 119.62 25.1667 118.32 23.8C117.02 22.4333 116.37 20.7333 116.37 18.7C116.37 17.1667 116.803 15.8 117.67 14.6C118.57 13.3667 119.836 12.4 121.47 11.7C123.136 10.9667 125.053 10.6 127.22 10.6Z" fill="#141414"/>
<path d="M158.689 36.75C157.723 37.4167 156.589 37.9333 155.289 38.3C154.023 38.6667 152.756 38.85 151.489 38.85C145.689 38.8167 142.789 35.6167 142.789 29.25V16.95H139.039V11.45H142.789V5.69999L150.689 4.79999V11.45H156.789L155.939 16.95H150.689V29.15C150.689 30.3833 150.889 31.2667 151.289 31.8C151.689 32.3333 152.323 32.6 153.189 32.6C154.089 32.6 155.039 32.3167 156.039 31.75L158.689 36.75Z" fill="#141414"/>
<path d="M171.948 10.6C176.014 10.6 179.198 11.85 181.498 14.35C183.798 16.8167 184.948 20.2833 184.948 24.75C184.948 27.5833 184.414 30.0667 183.348 32.2C182.314 34.3 180.814 35.9333 178.848 37.1C176.914 38.2667 174.614 38.85 171.948 38.85C167.914 38.85 164.731 37.6167 162.398 35.15C160.098 32.65 158.948 29.1667 158.948 24.7C158.948 21.8667 159.464 19.4 160.498 17.3C161.564 15.1667 163.064 13.5167 164.998 12.35C166.964 11.1833 169.281 10.6 171.948 10.6ZM171.948 16.4C170.348 16.4 169.148 17.0833 168.348 18.45C167.548 19.7833 167.148 21.8667 167.148 24.7C167.148 27.6 167.531 29.7167 168.298 31.05C169.098 32.3833 170.314 33.05 171.948 33.05C173.548 33.05 174.748 32.3833 175.548 31.05C176.348 29.6833 176.748 27.5833 176.748 24.75C176.748 21.85 176.348 19.7333 175.548 18.4C174.781 17.0667 173.581 16.4 171.948 16.4Z" fill="#141414"/>
<path d="M236.062 38H228.012L227.412 24.45C227.245 21.2167 227.162 18.3333 227.162 15.8C227.162 13.8667 227.212 12.0333 227.312 10.3L221.962 34.35H214.212L208.512 10.3C208.712 13.2 208.812 15.9333 208.812 18.5C208.812 20.4333 208.762 22.45 208.662 24.55L208.062 38H200.062L202.662 3.34999H213.012L218.212 26.85L223.062 3.34999H233.462L236.062 38Z" fill="#141414"/>
<path d="M243.719 29.8C244.952 29.8 246.002 30.25 246.869 31.15C247.769 32.0167 248.219 33.0667 248.219 34.3C248.219 35.5667 247.769 36.65 246.869 37.55C246.002 38.4167 244.952 38.85 243.719 38.85C242.452 38.85 241.369 38.4167 240.469 37.55C239.602 36.65 239.169 35.5667 239.169 34.3C239.169 33.0667 239.602 32.0167 240.469 31.15C241.369 30.25 242.452 29.8 243.719 29.8Z" fill="#141414"/>
<path d="M273.046 3.34999V31.5H286.546L285.696 38H264.846V3.34999H273.046Z" fill="#141414"/>
<path d="M312.211 24.2C312.211 25.3 312.161 26.25 312.061 27.05H295.611C295.878 29.2833 296.511 30.85 297.511 31.75C298.511 32.65 299.894 33.1 301.661 33.1C302.728 33.1 303.761 32.9167 304.761 32.55C305.761 32.15 306.844 31.55 308.011 30.75L311.261 35.15C308.161 37.6167 304.711 38.85 300.911 38.85C296.611 38.85 293.311 37.5833 291.011 35.05C288.711 32.5167 287.561 29.1167 287.561 24.85C287.561 22.15 288.044 19.7333 289.011 17.6C289.978 15.4333 291.394 13.7333 293.261 12.5C295.128 11.2333 297.361 10.6 299.961 10.6C303.794 10.6 306.794 11.8 308.961 14.2C311.128 16.6 312.211 19.9333 312.211 24.2ZM304.461 21.95C304.394 17.8833 302.961 15.85 300.161 15.85C298.794 15.85 297.728 16.35 296.961 17.35C296.228 18.35 295.778 20 295.611 22.3H304.461V21.95Z" fill="#141414"/>
<path d="M337.261 30.3C337.261 31.3 337.394 32.0333 337.661 32.5C337.961 32.9667 338.427 33.3167 339.061 33.55L337.411 38.7C335.777 38.5667 334.444 38.2167 333.411 37.65C332.377 37.05 331.577 36.1167 331.011 34.85C329.277 37.5167 326.611 38.85 323.011 38.85C320.377 38.85 318.277 38.0833 316.711 36.55C315.144 35.0167 314.361 33.0167 314.361 30.55C314.361 27.65 315.427 25.4333 317.561 23.9C319.694 22.3667 322.777 21.6 326.811 21.6H329.511V20.45C329.511 18.8833 329.177 17.8167 328.511 17.25C327.844 16.65 326.677 16.35 325.011 16.35C324.144 16.35 323.094 16.4833 321.861 16.75C320.627 16.9833 319.361 17.3167 318.061 17.75L316.261 12.55C317.927 11.9167 319.627 11.4333 321.361 11.1C323.127 10.7667 324.761 10.6 326.261 10.6C330.061 10.6 332.844 11.3833 334.611 12.95C336.377 14.5167 337.261 16.8667 337.261 20V30.3ZM325.311 33.2C327.111 33.2 328.511 32.35 329.511 30.65V25.95H327.561C325.761 25.95 324.411 26.2667 323.511 26.9C322.644 27.5333 322.211 28.5167 322.211 29.85C322.211 30.9167 322.477 31.75 323.011 32.35C323.577 32.9167 324.344 33.2 325.311 33.2Z" fill="#141414"/>
<path d="M350.115 38.85C347.815 38.85 346.015 38.2 344.715 36.9C343.448 35.5667 342.815 33.6833 342.815 31.25V0.899989L350.715 0.0499878V30.95C350.715 32.05 351.165 32.6 352.065 32.6C352.531 32.6 352.965 32.5167 353.365 32.35L354.915 37.95C353.481 38.55 351.881 38.85 350.115 38.85Z" fill="#141414"/>
</svg>
