<svg width="22" height="17" viewBox="0 0 22 17" fill="none" xmlns="http://www.w3.org/2000/svg">
<path d="M16.5 0C14.55 0 12.45 0.4 11 1.5C9.55 0.4 7.45 0 5.5 0C4.05 0 2.51 0.22 1.22 0.79C0.49 1.12 0 1.83 0 2.64V13.92C0 15.22 1.22 16.18 2.48 15.86C3.46 15.61 4.5 15.5 5.5 15.5C7.06 15.5 8.72 15.76 10.06 16.42C10.66 16.72 11.34 16.72 11.93 16.42C13.27 15.75 14.93 15.5 16.49 15.5C17.49 15.5 18.53 15.61 19.51 15.86C20.77 16.19 21.99 15.23 21.99 13.92V2.64C21.99 1.83 21.5 1.12 20.77 0.79C19.49 0.22 17.95 0 16.5 0ZM20 12.73C20 13.36 19.42 13.82 18.8 13.71C18.05 13.57 17.27 13.51 16.5 13.51C14.8 13.51 12.35 14.16 11 15.01V3.5C12.35 2.65 14.8 2 16.5 2C17.42 2 18.33 2.09 19.2 2.28C19.66 2.38 20 2.79 20 3.26V12.73Z" fill="url(#paint0_linear_6_192)"/>
<path d="M12.98 6.50998C12.66 6.50998 12.37 6.30998 12.27 5.98998C12.14 5.59998 12.36 5.16998 12.75 5.04998C14.29 4.54998 16.28 4.38998 18.11 4.59998C18.52 4.64998 18.82 5.01998 18.77 5.42998C18.72 5.83998 18.35 6.13998 17.94 6.08998C16.32 5.89998 14.55 6.04998 13.21 6.47998C13.13 6.48998 13.05 6.50998 12.98 6.50998Z" fill="url(#paint1_linear_6_192)"/>
<path d="M12.98 9.17001C12.66 9.17001 12.37 8.97001 12.27 8.65001C12.14 8.26001 12.36 7.83001 12.75 7.71001C14.28 7.21001 16.28 7.05001 18.11 7.26001C18.52 7.31001 18.82 7.68001 18.77 8.09001C18.72 8.50001 18.35 8.80001 17.94 8.75001C16.32 8.56001 14.55 8.71001 13.21 9.14001C13.13 9.16001 13.05 9.17001 12.98 9.17001Z" fill="url(#paint2_linear_6_192)"/>
<path d="M12.98 11.83C12.66 11.83 12.37 11.63 12.27 11.31C12.14 10.92 12.36 10.49 12.75 10.37C14.28 9.87005 16.28 9.71005 18.11 9.92005C18.52 9.97005 18.82 10.34 18.77 10.75C18.72 11.16 18.35 11.45 17.94 11.41C16.32 11.22 14.55 11.37 13.21 11.8C13.13 11.82 13.05 11.83 12.98 11.83Z" fill="url(#paint3_linear_6_192)"/>
<defs>
<linearGradient id="paint0_linear_6_192" x1="10.995" y1="0" x2="10.995" y2="16.645" gradientUnits="userSpaceOnUse">
<stop stop-color="#3985BD"/>
<stop offset="1" stop-color="#4399C9"/>
</linearGradient>
<linearGradient id="paint1_linear_6_192" x1="15.504" y1="4.50989" x2="15.504" y2="6.50998" gradientUnits="userSpaceOnUse">
<stop stop-color="#3985BD"/>
<stop offset="1" stop-color="#4399C9"/>
</linearGradient>
<linearGradient id="paint2_linear_6_192" x1="15.504" y1="7.16992" x2="15.504" y2="9.17001" gradientUnits="userSpaceOnUse">
<stop stop-color="#3985BD"/>
<stop offset="1" stop-color="#4399C9"/>
</linearGradient>
<linearGradient id="paint3_linear_6_192" x1="15.504" y1="9.82996" x2="15.504" y2="11.83" gradientUnits="userSpaceOnUse">
<stop stop-color="#3985BD"/>
<stop offset="1" stop-color="#4399C9"/>
</linearGradient>
</defs>
</svg>
